<?xml version="1.0" encoding="UTF-8"?>
<svg id="Layer_1" data-name="Layer 1" xmlns="http://www.w3.org/2000/svg" viewBox="0 0 166.4 66.6">
  <defs>
    <style>
      .cls-1 {
        fill: #fbb54d;
      }

      .cls-1, .cls-2 {
        stroke-width: 0px;
      }

      .cls-2 {
        fill: #4f4f4f;
      }
    </style>
  </defs>
  <path class="cls-2" d="m8.92,66.6L5.72,11.8l-1.98,54.81H0L2.43,7.74h6.64l2.72,50.19L14.74,7.74h6.64l2.43,58.86h-3.75l-1.98-54.81-3.19,54.81h-5.98Z"/>
  <path class="cls-1" d="m44.58,22.63c10.28,0,18.64,8.26,18.64,18.44s-8.36,18.44-18.64,18.44-18.64-8.26-18.64-18.44,8.36-18.44,18.64-18.44Zm0,33.23c8.26,0,14.79-6.64,14.79-14.79s-6.53-14.79-14.79-14.79-14.79,6.64-14.79,14.79,6.53,14.79,14.79,14.79Z"/>
  <path class="cls-2" d="m66.36,23.34h2.33c7.09,0,12.92,5.72,12.92,12.76,0,5.07-3.04,9.37-7.4,11.45l7.34,11.25h-4.46l-6.89-10.59v10.59h-3.85V23.34Zm3.85,3.75v18.13c4.31-.76,7.55-4.61,7.55-9.12s-3.24-8.26-7.55-9.02Z"/>
  <path class="cls-2" d="m93.67,23.34l4.05,35.46h-3.75l-.46-3.75h-5.67l-.4,3.75h-3.75l4.05-35.46h5.93Zm-2.99,4.25l-2.38,23.81h4.81l-2.43-23.81Z"/>
  <path class="cls-2" d="m99.53,61.64c.46.76,1.32,1.32,2.23,1.32,1.42,0,2.58-1.27,2.58-2.58l-.1-52.63h3.85l.1,52.27c0,3.65-2.89,6.59-6.43,6.59-2.33,0-4.41-1.32-5.52-3.24l3.12-1.63.18-.09Z"/>
  <path class="cls-1" d="m129.83,22.63c10.28,0,18.64,8.26,18.64,18.44s-8.36,18.44-18.64,18.44-18.64-8.26-18.64-18.44,8.36-18.44,18.64-18.44Zm0,33.23c8.26,0,14.79-6.64,14.79-14.79s-6.53-14.79-14.79-14.79-14.79,6.64-14.79,14.79,6.53,14.79,14.79,14.79Z"/>
  <path class="cls-2" d="m151.61,58.79V23.34h1.67c5.22,0,8.92,4.41,8.92,8.86,0,2.13-.71,4.05-2.13,5.42,3.85,1.93,6.33,5.62,6.33,9.88,0,6.23-5.17,11.3-11.45,11.3h-3.34Zm3.85-31.41v9.62c1.72-.86,2.89-2.74,2.89-4.81s-1.16-3.9-2.89-4.81Zm0,12.46v15.35c3.9-.3,7.09-3.75,7.09-7.7s-3.19-7.34-7.09-7.65Z"/>
</svg>